# xmcd CD database file
#
# Track frame offsets:
#	150
#	12369
#	24722
#	36793
#	48571
#	61928
#	74207
#	86523
#	97796
#	109689
#	123410
#	135594
#	146100
#	159296
#	171535
#	183762
#	195161
#	206849
#	216653
#	230892
#
# Disc length: 3227 seconds
#
# Revision: 0
# Processed by: cddbd v1.5.2PL0 Copyright (c) Steve Scherf et al.
# Submitted via: CDex 1.70beta1
#
DISCID=280c9914
DTITLE=Various Artist - Country Love Volume 1
DYEAR=2004
DGENRE=Country
TTITLE0=Hank Williams - Half As Much
TTITLE1=Lynn Anderson - Stand By Your Man
TTITLE2=Bob Wills and His Texas Playboys - Time Changes Everything
TTITLE3=Waylon Jennings - Crying
TTITLE4=Ernest Tubb - Any Old Time
TTITLE5=Billie Jo Spears - The Cheatin' Kind
TTITLE6=Faron Young - Country Girl
TTITLE7=Anne Murray - The Last Thing On My Mind
TTITLE8=Cowboy Copas - Signed, Sealed and Delivered
TTITLE9=The Allisons - Roses Are Red, People Are Blue
TTITLE10=Lefty Frizell - I Want To Be With You Always
TTITLE11=Tex Ritter - Have I Stayed Away Too Long
TTITLE12=George Morgan -Candy Kisses
TTITLE13=Sons Of The Pioneers - Let's Pretend
TTITLE14=Bill Monroe and His Bluegrass Boys - No Letter In The Mail
TTITLE15=Little Jimmy Dickens - I Wish You Didn't Love Me So Much
TTITLE16=Eddy Arnold and His Tennessee Playboys - Bouquet Of Roses
TTITLE17=Hank Snow with Anita Carter - Down The Trail Of Achin' Hearts
TTITLE18=Ed Bruce - Behind Closed Doors (Live)
TTITLE19=Frankie Laine - Answer Me
EXTD=YEAR: 2004
EXTT0=
EXTT1=
EXTT2=
EXTT3=
EXTT4=
EXTT5=
EXTT6=
EXTT7=
EXTT8=
EXTT9=
EXTT10=
EXTT11=
EXTT12=
EXTT13=
EXTT14=
EXTT15=
EXTT16=
EXTT17=
EXTT18=
EXTT19=
PLAYORDER=
